<svg width="44" height="39" viewBox="0 0 44 39" fill="none" xmlns="http://www.w3.org/2000/svg">
<path fill-rule="evenodd" clip-rule="evenodd" d="M16.0323 38.7382C9.4114 37.9809 5.45634 36.7534 2.21916 34.4514C1.08413 33.6443 0 31.986 0 31.057C0 30.1777 4.84052 5.89239 5.21723 4.88174C5.59482 3.86869 6.36777 3.12829 7.85039 2.35947C10.084 1.20123 12.9249 0.443246 16.1203 0.15295C19.0912 -0.116937 26.8381 -0.0117396 29.0206 0.328127C31.3662 0.693383 34.1837 1.50014 35.5643 2.20182C37.4852 3.17817 38.1526 4.16416 38.669 6.78893C38.831 7.61222 39.503 10.9406 40.1622 14.1853C40.8215 17.4301 41.5749 21.2339 41.8365 22.6384C42.0981 24.0428 42.5492 26.3806 42.8388 27.8334C43.1543 29.4164 43.3359 30.8042 43.2919 31.2965C43.0455 34.052 38.4233 36.8396 31.9764 38.1208C27.6425 38.9821 20.5615 39.2563 16.0323 38.7382ZM35.329 32.9593C35.2581 33.8207 35.1192 34.6245 35.0202 34.7455C34.8271 34.9818 34.3123 35.0405 34.12 34.8483C33.9166 34.645 33.9895 33.4953 34.4275 29.996C34.6612 28.1286 34.9064 26.109 34.9724 25.508C35.1044 24.3057 35.3658 23.9532 36.0065 24.114C36.534 24.2463 36.7693 24.8156 37.6217 28.0224C38.3551 30.7812 38.7733 32.9634 38.6368 33.3189C38.4694 33.7551 37.8925 33.5897 37.7774 33.0726C37.7182 32.8062 37.5709 32.2317 37.45 31.7958L37.2304 31.0033L37.106 32.4122C36.9729 33.9191 36.8739 34.2223 36.4216 34.5074C35.9946 34.7767 35.9082 34.5853 35.824 33.1833C35.708 31.2543 35.4778 31.1501 35.329 32.9593ZM35.6616 12.5123C36.2631 17.7461 36.5053 21.2378 36.2852 21.5029C35.9936 21.8541 35.6349 21.8221 35.4228 21.4259C35.325 21.2433 35.1236 19.5197 34.9751 17.5956C34.6535 13.4296 34.2438 9.74022 34.0137 8.93997C33.7204 7.91992 33.1011 7.11494 32.3456 6.77201C31.9488 6.59186 31.4951 6.44272 31.3374 6.44059C31.1797 6.43846 30.9434 6.30755 30.8123 6.14966C30.5989 5.89263 30.6289 5.87358 31.099 5.96754C31.3878 6.02525 31.9412 6.12539 32.3288 6.19008C34.4583 6.54547 35.1202 7.8011 35.6616 12.5123ZM30.7976 7.75751C30.8708 7.99429 29.3108 8.30356 26.3904 8.63124C22.2402 9.0969 17.4969 8.86462 14.2705 8.03775C13.4295 7.82222 11.7653 7.12103 11.8631 7.02336C11.895 6.99145 12.747 7.07784 13.7565 7.21535C17.6717 7.74867 20.6163 7.89576 24.5769 7.75585C30.1132 7.56029 30.7368 7.56046 30.7976 7.75751Z" fill="#B34633"/>
</svg>
